<?xml version="1.0" standalone="no"?>
<!DOCTYPE svg PUBLIC "-//W3C//DTD SVG 20010904//EN"
 "http://www.w3.org/TR/2001/REC-SVG-20010904/DTD/svg10.dtd">
<svg version="1.0" xmlns="http://www.w3.org/2000/svg"
 width="260.000000pt" height="260.000000pt" viewBox="0 0 260.000000 260.000000"
 preserveAspectRatio="xMidYMid meet">
<metadata>
Created by potrace 1.14, written by Peter Selinger 2001-2017
</metadata>
<g transform="translate(0.000000,260.000000) scale(0.100000,-0.100000)"
fill="#000000" stroke="none">
<path d="M0 1299 l0 -800 393 3 c429 4 446 7 573 68 303 148 324 614 33 758
l-40 20 36 22 c43 26 99 94 120 143 39 93 37 250 -5 343 -28 66 -113 150 -184
184 -113 53 -178 60 -571 60 l-355 0 0 -801z m671 428 c48 -20 69 -52 69 -103
0 -53 -34 -105 -80 -121 -19 -7 -86 -12 -147 -12 l-113 -1 0 131 0 132 118 -5
c72 -3 131 -11 153 -21z m55 -604 c45 -24 64 -57 64 -111 0 -52 -30 -102 -76
-126 -33 -18 -62 -22 -176 -24 l-138 -4 0 147 0 147 143 -4 c120 -3 148 -7
183 -25z"/>
<path d="M1397 2093 c-10 -9 -8 -1566 2 -1581 6 -11 83 -13 397 -9 421 4 439
6 564 65 80 37 180 141 211 217 20 51 23 78 24 180 0 114 -2 123 -31 185 -36
76 -95 140 -159 173 l-46 23 44 32 c97 69 142 178 135 327 -3 79 -8 102 -36
157 -39 79 -101 139 -186 179 -114 53 -166 59 -557 59 -196 0 -359 -3 -362 -7z
m676 -368 c48 -23 67 -50 67 -98 0 -101 -59 -136 -227 -137 l-113 0 0 131 0
132 118 -5 c84 -4 128 -10 155 -23z m13 -590 c67 -20 96 -52 101 -112 4 -39 0
-55 -19 -82 -43 -64 -76 -75 -230 -79 l-138 -4 0 146 0 146 118 0 c75 0 136
-5 168 -15z"/>
</g>
</svg>
